<svg xmlns="http://www.w3.org/2000/svg" viewBox="0 0 380 315" width="380" height="315" font-family="DejaVu Sans Mono, Consolas, monospace">
<rect width="380" height="315" fill="#ffffff"/>
<polygon points="140.0,60.0 240.0,60.0 250.0,70.0 240.0,80.0 140.0,80.0 130.0,70.0" fill="#d3362a"/>
<polygon points="250.0,72.0 260.0,82.0 260.0,140.0 250.0,150.0 240.0,140.0 240.0,82.0" fill="#d3362a"/>
<polygon points="250.0,162.0 260.0,172.0 260.0,230.0 250.0,240.0 240.0,230.0 240.0,172.0" fill="#d3362a"/>
<polygon points="140.0,232.0 240.0,232.0 250.0,242.0 240.0,252.0 140.0,252.0 130.0,242.0" fill="#d3362a"/>
<polygon points="130.0,162.0 140.0,172.0 140.0,230.0 130.0,240.0 120.0,230.0 120.0,172.0" fill="#d3362a"/>
<polygon points="130.0,72.0 140.0,82.0 140.0,140.0 130.0,150.0 120.0,140.0 120.0,82.0" fill="#d3362a"/>
<polygon points="140.0,146.0 240.0,146.0 250.0,156.0 240.0,166.0 140.0,166.0 130.0,156.0" fill="#d3362a"/>
<circle cx="278.0" cy="244.0" r="8.0" fill="#d3362a"/><text x="190" y="75" fill="#ffffff" font-size="15" font-weight="bold" text-anchor="middle">a</text><text x="250" y="116" fill="#ffffff" font-size="15" font-weight="bold" text-anchor="middle">b</text><text x="250" y="206" fill="#ffffff" font-size="15" font-weight="bold" text-anchor="middle">c</text><text x="190" y="247" fill="#ffffff" font-size="15" font-weight="bold" text-anchor="middle">d</text><text x="130" y="206" fill="#ffffff" font-size="15" font-weight="bold" text-anchor="middle">e</text><text x="130" y="116" fill="#ffffff" font-size="15" font-weight="bold" text-anchor="middle">f</text><text x="190" y="161" fill="#ffffff" font-size="15" font-weight="bold" text-anchor="middle">g</text><text x="190" y="48" fill="#5b6476" font-size="12" text-anchor="middle">bit 0</text><text x="275" y="116" fill="#5b6476" font-size="12" text-anchor="start">bit 1</text><text x="275" y="206" fill="#5b6476" font-size="12" text-anchor="start">bit 2</text><text x="190" y="272" fill="#5b6476" font-size="12" text-anchor="middle">bit 3</text><text x="105" y="206" fill="#5b6476" font-size="12" text-anchor="end">bit 4</text><text x="105" y="116" fill="#5b6476" font-size="12" text-anchor="end">bit 5</text><text x="105" y="161" fill="#5b6476" font-size="12" text-anchor="end">bit 6</text><text x="300" y="270" fill="#5b6476" font-size="12" text-anchor="middle">dp · bit 7</text><text x="190" y="22" fill="#1c2230" font-size="13" font-weight="bold" text-anchor="middle">Display de 7 segmentos</text><text x="190" y="300" fill="#5b6476" font-size="11" text-anchor="middle">byte = dp g f e d c b a  (bit 7 … bit 0)</text>
</svg>
