<svg xmlns="http://www.w3.org/2000/svg" viewBox="0 0 900 530" width="900" height="530" font-family="DejaVu Sans Mono, Consolas, monospace">
<rect width="900" height="530" fill="#ffffff"/>
<defs><marker id="ar" viewBox="0 0 10 10" refX="9" refY="5" markerWidth="7" markerHeight="7" orient="auto"><path d="M0,0 L10,5 L0,10 z" fill="#1c2230"/></marker></defs>
<text x="450" y="24" fill="#1c2230" font-size="15" font-weight="bold" text-anchor="middle">74HC595 em cascata — 3 GPIOs, 16 saídas</text>
<rect x="20" y="120" width="110" height="130" rx="6" fill="#f6f7f9" stroke="#1c2230" stroke-width="1.6"/><text x="75.0" y="185.0" fill="#1c2230" font-size="14" font-weight="bold" text-anchor="middle">ESP32</text><text x="75.0" y="205.0" fill="#5b6476" font-size="11" text-anchor="middle">ou Pico</text>
<rect x="180" y="60" width="300" height="190" rx="6" fill="#f6f7f9" stroke="#1c2230" stroke-width="1.6"/><text x="330" y="80" fill="#1c2230" font-size="13" font-weight="bold" text-anchor="middle">U1</text><text x="330" y="100" fill="#5b6476" font-size="11" text-anchor="middle">registrador de deslocamento</text><rect x="195" y="108" width="30" height="34" fill="#ffffff" stroke="#5b6476"/><text x="210" y="130" fill="#1c2230" font-size="11" text-anchor="middle">Q0</text><rect x="229" y="108" width="30" height="34" fill="#ffffff" stroke="#5b6476"/><text x="244" y="130" fill="#1c2230" font-size="11" text-anchor="middle">Q1</text><rect x="263" y="108" width="30" height="34" fill="#ffffff" stroke="#5b6476"/><text x="278" y="130" fill="#1c2230" font-size="11" text-anchor="middle">Q2</text><rect x="297" y="108" width="30" height="34" fill="#ffffff" stroke="#5b6476"/><text x="312" y="130" fill="#1c2230" font-size="11" text-anchor="middle">Q3</text><rect x="331" y="108" width="30" height="34" fill="#ffffff" stroke="#5b6476"/><text x="346" y="130" fill="#1c2230" font-size="11" text-anchor="middle">Q4</text><rect x="365" y="108" width="30" height="34" fill="#ffffff" stroke="#5b6476"/><text x="380" y="130" fill="#1c2230" font-size="11" text-anchor="middle">Q5</text><rect x="399" y="108" width="30" height="34" fill="#ffffff" stroke="#5b6476"/><text x="414" y="130" fill="#1c2230" font-size="11" text-anchor="middle">Q6</text><rect x="433" y="108" width="30" height="34" fill="#ffffff" stroke="#5b6476"/><text x="448" y="130" fill="#1c2230" font-size="11" text-anchor="middle">Q7</text><text x="330" y="168" fill="#5b6476" font-size="11" text-anchor="middle">↓ pulso de latch (STCP) copia ↓</text><rect x="195" y="178" width="270" height="34" fill="#ffffff" stroke="#1c2230"/><text x="330" y="200" fill="#1c2230" font-size="11" text-anchor="middle">registrador de armazenamento (latch)</text><text x="330" y="238" fill="#5b6476" font-size="11" text-anchor="middle">saídas Q0…Q7 → a b c d e f g dp</text>
<rect x="560" y="60" width="300" height="190" rx="6" fill="#f6f7f9" stroke="#1c2230" stroke-width="1.6"/><text x="710" y="80" fill="#1c2230" font-size="13" font-weight="bold" text-anchor="middle">U2</text><text x="710" y="100" fill="#5b6476" font-size="11" text-anchor="middle">registrador de deslocamento</text><rect x="575" y="108" width="30" height="34" fill="#ffffff" stroke="#5b6476"/><text x="590" y="130" fill="#1c2230" font-size="11" text-anchor="middle">Q0</text><rect x="609" y="108" width="30" height="34" fill="#ffffff" stroke="#5b6476"/><text x="624" y="130" fill="#1c2230" font-size="11" text-anchor="middle">Q1</text><rect x="643" y="108" width="30" height="34" fill="#ffffff" stroke="#5b6476"/><text x="658" y="130" fill="#1c2230" font-size="11" text-anchor="middle">Q2</text><rect x="677" y="108" width="30" height="34" fill="#ffffff" stroke="#5b6476"/><text x="692" y="130" fill="#1c2230" font-size="11" text-anchor="middle">Q3</text><rect x="711" y="108" width="30" height="34" fill="#ffffff" stroke="#5b6476"/><text x="726" y="130" fill="#1c2230" font-size="11" text-anchor="middle">Q4</text><rect x="745" y="108" width="30" height="34" fill="#ffffff" stroke="#5b6476"/><text x="760" y="130" fill="#1c2230" font-size="11" text-anchor="middle">Q5</text><rect x="779" y="108" width="30" height="34" fill="#ffffff" stroke="#5b6476"/><text x="794" y="130" fill="#1c2230" font-size="11" text-anchor="middle">Q6</text><rect x="813" y="108" width="30" height="34" fill="#ffffff" stroke="#5b6476"/><text x="828" y="130" fill="#1c2230" font-size="11" text-anchor="middle">Q7</text><text x="710" y="168" fill="#5b6476" font-size="11" text-anchor="middle">↓ pulso de latch (STCP) copia ↓</text><rect x="575" y="178" width="270" height="34" fill="#ffffff" stroke="#1c2230"/><text x="710" y="200" fill="#1c2230" font-size="11" text-anchor="middle">registrador de armazenamento (latch)</text><text x="710" y="238" fill="#5b6476" font-size="11" text-anchor="middle">saídas Q0…Q7 → a b c d e f g dp</text>
<path d="M130,135 L195,135 L195,142" stroke="#1f7a4d" stroke-width="2" fill="none" marker-end="url(#ar)"/>
<text x="138" y="130" fill="#1f7a4d" font-size="11">DS</text>
<path d="M462,125 L480,125 L480,48 L545,48 L545,125 L572,125" stroke="#1f7a4d" stroke-width="2" fill="none" marker-end="url(#ar)"/>
<text x="512" y="42" fill="#1f7a4d" font-size="11" text-anchor="middle">Q7S → DS</text>
<path d="M130,175 L150,175 L150,268 L520,268 L520,160 L560,160" stroke="#1f5fae" stroke-width="1.6" fill="none" stroke-dasharray="5 3"/>
<line x1="150" y1="160" x2="180" y2="160" stroke="#1f5fae" stroke-width="1.6" stroke-dasharray="5 3"/><line x1="150" y1="175" x2="150" y2="160" stroke="#1f5fae" stroke-width="1.6" stroke-dasharray="5 3"/>
<text x="235" y="282" fill="#1f5fae" font-size="11" text-anchor="middle">SHCP (clock) — compartilhado</text>
<path d="M130,225 L140,225 L140,295 L540,295 L540,195 L575,195" stroke="#7a3fb0" stroke-width="1.6" fill="none" stroke-dasharray="2 3"/>
<line x1="140" y1="195" x2="195" y2="195" stroke="#7a3fb0" stroke-width="1.6" stroke-dasharray="2 3"/><line x1="140" y1="225" x2="140" y2="195" stroke="#7a3fb0" stroke-width="1.6" stroke-dasharray="2 3"/>
<text x="235" y="309" fill="#7a3fb0" font-size="11" text-anchor="middle">STCP (latch) — compartilhado</text>
<text x="125" y="268" fill="#1f5fae" font-size="10" text-anchor="end">SHCP</text><text x="125" y="295" fill="#7a3fb0" font-size="10" text-anchor="end">STCP</text>
<polygon points="323.5,341.0 378.5,341.0 384.0,346.5 378.5,352.0 323.5,352.0 318.0,346.5" fill="#d3362a"/>
<polygon points="384.0,347.6 389.5,353.1 389.5,385.0 384.0,390.5 378.5,385.0 378.5,353.1" fill="#d3362a"/>
<polygon points="384.0,397.1 389.5,402.6 389.5,434.5 384.0,440.0 378.5,434.5 378.5,402.6" fill="#d3362a"/>
<polygon points="323.5,435.6 378.5,435.6 384.0,441.1 378.5,446.6 323.5,446.6 318.0,441.1" fill="#e4e7ed"/>
<polygon points="318.0,397.1 323.5,402.6 323.5,434.5 318.0,440.0 312.5,434.5 312.5,402.6" fill="#e4e7ed"/>
<polygon points="318.0,347.6 323.5,353.1 323.5,385.0 318.0,390.5 312.5,385.0 312.5,353.1" fill="#e4e7ed"/>
<polygon points="323.5,388.3 378.5,388.3 384.0,393.8 378.5,399.3 323.5,399.3 318.0,393.8" fill="#e4e7ed"/>
<circle cx="399.4" cy="442.2" r="4.4" fill="#e4e7ed"/>
<polygon points="703.5,341.0 758.5,341.0 764.0,346.5 758.5,352.0 703.5,352.0 698.0,346.5" fill="#e4e7ed"/>
<polygon points="764.0,347.6 769.5,353.1 769.5,385.0 764.0,390.5 758.5,385.0 758.5,353.1" fill="#d3362a"/>
<polygon points="764.0,397.1 769.5,402.6 769.5,434.5 764.0,440.0 758.5,434.5 758.5,402.6" fill="#d3362a"/>
<polygon points="703.5,435.6 758.5,435.6 764.0,441.1 758.5,446.6 703.5,446.6 698.0,441.1" fill="#e4e7ed"/>
<polygon points="698.0,397.1 703.5,402.6 703.5,434.5 698.0,440.0 692.5,434.5 692.5,402.6" fill="#e4e7ed"/>
<polygon points="698.0,347.6 703.5,353.1 703.5,385.0 698.0,390.5 692.5,385.0 692.5,353.1" fill="#e4e7ed"/>
<polygon points="703.5,388.3 758.5,388.3 764.0,393.8 758.5,399.3 703.5,399.3 698.0,393.8" fill="#e4e7ed"/>
<circle cx="779.4" cy="442.2" r="4.4" fill="#e4e7ed"/>
<path d="M330,250 L330,325" stroke="#1c2230" stroke-width="1.6" marker-end="url(#ar)"/><path d="M710,250 L710,325" stroke="#1c2230" stroke-width="1.6" marker-end="url(#ar)"/>
<text x="345" y="470" fill="#1c2230" font-size="13" font-weight="bold" text-anchor="middle">UNIDADES</text>
<text x="345" y="488" fill="#d3362a" font-size="11" text-anchor="middle">recebe o ÚLTIMO byte enviado</text>
<text x="725" y="470" fill="#1c2230" font-size="13" font-weight="bold" text-anchor="middle">DEZENAS</text>
<text x="725" y="488" fill="#d3362a" font-size="11" text-anchor="middle">recebe o PRIMEIRO byte enviado</text>
<text x="75" y="330" fill="#5b6476" font-size="10" text-anchor="middle">DS/SHCP/STCP</text><text x="75" y="344" fill="#5b6476" font-size="10" text-anchor="middle">ESP32 23/18/21</text><text x="75" y="358" fill="#5b6476" font-size="10" text-anchor="middle">Pico GP19/18/17</text>
<text x="450" y="515" fill="#5b6476" font-size="11" text-anchor="middle">Na montagem, coloque U2 e o display das DEZENAS à esquerda: o 17 fica legível.</text>
</svg>
